<svg width="300" height="300" viewBox="0 0 300 300" fill="none" xmlns="http://www.w3.org/2000/svg">
<circle cx="150" cy="150" r="150" fill="white"/>
<path d="M149.5 89.7699C136.401 81.3061 116.437 77.8975 96 77.25V159.177C113.552 159.732 130.753 162.327 143.557 168.404C147.329 170.199 151.658 170.199 155.447 168.404C168.252 162.327 185.448 159.732 203 159.177V77.25C182.563 77.8975 162.599 81.3061 149.5 89.7699ZM145.042 158.692C138.243 156.166 124.016 151.731 104.917 150.371V86.9949C127.904 88.794 138.475 93.7613 145.042 97.7896V158.692ZM194.083 150.376C174.988 151.731 160.757 156.166 153.958 158.696V97.7804C157.828 95.3985 163.196 92.6605 171.792 90.4544V118.875L178.479 111.938L185.167 118.875V87.9291C187.917 87.5638 190.869 87.2446 194.083 86.9949V150.376Z" fill="#6777EF"/>
<path d="M54.2768 212.168C53.6048 212.168 53.0728 211.972 52.6808 211.58C52.2888 211.188 52.0928 210.656 52.0928 209.984V194.304C52.0928 193.651 52.2701 193.147 52.6248 192.792C52.9795 192.437 53.4835 192.26 54.1368 192.26H61.1648C63.3115 192.26 64.9821 192.801 66.1768 193.884C67.3715 194.967 67.9688 196.479 67.9688 198.42C67.9688 200.361 67.3715 201.873 66.1768 202.956C64.9821 204.039 63.3115 204.58 61.1648 204.58H56.4608V209.984C56.4608 210.656 56.2648 211.188 55.8728 211.58C55.4808 211.972 54.9488 212.168 54.2768 212.168ZM60.6048 201.276C62.7888 201.276 63.8808 200.333 63.8808 198.448C63.8808 196.544 62.7888 195.592 60.6048 195.592H56.4608V201.276H60.6048ZM72.8399 212C72.1866 212 71.6826 211.823 71.3279 211.468C70.9733 211.113 70.7959 210.609 70.7959 209.956V194.304C70.7959 193.651 70.9733 193.147 71.3279 192.792C71.6826 192.437 72.1866 192.26 72.8399 192.26H82.7519C84.1333 192.26 84.8239 192.82 84.8239 193.94C84.8239 195.079 84.1333 195.648 82.7519 195.648H75.0519V200.268H82.1919C83.5733 200.268 84.2639 200.837 84.2639 201.976C84.2639 203.096 83.5733 203.656 82.1919 203.656H75.0519V208.612H82.7519C84.1333 208.612 84.8239 209.181 84.8239 210.32C84.8239 211.44 84.1333 212 82.7519 212H72.8399ZM103.578 209.228C103.858 209.639 103.998 210.04 103.998 210.432C103.998 210.955 103.783 211.384 103.354 211.72C102.943 212.056 102.458 212.224 101.898 212.224C101.543 212.224 101.198 212.14 100.862 211.972C100.526 211.804 100.246 211.543 100.022 211.188L96.3256 205.7C96.0083 205.215 95.6723 204.869 95.3176 204.664C94.9629 204.44 94.5149 204.328 93.9736 204.328H91.7056V209.984C91.7056 210.656 91.5096 211.188 91.1176 211.58C90.7443 211.972 90.2309 212.168 89.5776 212.168C88.9056 212.168 88.3736 211.972 87.9816 211.58C87.5896 211.188 87.3936 210.656 87.3936 209.984V194.304C87.3936 193.651 87.5709 193.147 87.9256 192.792C88.2803 192.437 88.7843 192.26 89.4376 192.26H96.4656C98.7803 192.26 100.526 192.773 101.702 193.8C102.896 194.808 103.494 196.273 103.494 198.196C103.494 199.708 103.074 200.968 102.234 201.976C101.394 202.984 100.208 203.647 98.6776 203.964C99.2376 204.076 99.7323 204.3 100.162 204.636C100.61 204.953 101.039 205.42 101.45 206.036L103.578 209.228ZM95.8216 201.024C97.0723 201.024 97.9776 200.809 98.5376 200.38C99.0976 199.932 99.3776 199.241 99.3776 198.308C99.3776 197.356 99.0976 196.665 98.5376 196.236C97.9776 195.807 97.0723 195.592 95.8216 195.592H91.6496V201.024H95.8216ZM109.21 212.168C108.538 212.168 108.006 211.972 107.614 211.58C107.222 211.188 107.026 210.656 107.026 209.984V194.304C107.026 193.651 107.204 193.147 107.558 192.792C107.913 192.437 108.417 192.26 109.07 192.26H116.098C118.245 192.26 119.916 192.801 121.11 193.884C122.305 194.967 122.902 196.479 122.902 198.42C122.902 200.361 122.305 201.873 121.11 202.956C119.916 204.039 118.245 204.58 116.098 204.58H111.394V209.984C111.394 210.656 111.198 211.188 110.806 211.58C110.414 211.972 109.882 212.168 109.21 212.168ZM115.538 201.276C117.722 201.276 118.814 200.333 118.814 198.448C118.814 196.544 117.722 195.592 115.538 195.592H111.394V201.276H115.538ZM134.102 212.252C131.339 212.252 129.23 211.543 127.774 210.124C126.336 208.687 125.618 206.596 125.618 203.852V194.276C125.618 193.623 125.814 193.1 126.206 192.708C126.598 192.316 127.12 192.12 127.774 192.12C128.427 192.12 128.94 192.316 129.314 192.708C129.706 193.1 129.902 193.623 129.902 194.276V204.048C129.902 205.616 130.256 206.811 130.966 207.632C131.694 208.453 132.739 208.864 134.102 208.864C135.464 208.864 136.51 208.453 137.238 207.632C137.966 206.792 138.33 205.597 138.33 204.048V194.276C138.33 193.623 138.516 193.1 138.89 192.708C139.282 192.316 139.804 192.12 140.458 192.12C141.111 192.12 141.634 192.316 142.026 192.708C142.418 193.1 142.614 193.623 142.614 194.276V203.852C142.614 206.577 141.886 208.659 140.43 210.096C138.974 211.533 136.864 212.252 134.102 212.252ZM153.541 212.252C152.066 212.252 150.694 212.084 149.425 211.748C148.155 211.393 147.119 210.899 146.317 210.264C146.037 210.059 145.831 209.844 145.701 209.62C145.589 209.377 145.533 209.079 145.533 208.724C145.533 208.257 145.673 207.847 145.953 207.492C146.251 207.137 146.587 206.96 146.961 206.96C147.166 206.96 147.362 206.997 147.549 207.072C147.754 207.128 147.997 207.24 148.277 207.408C149.079 207.912 149.891 208.285 150.713 208.528C151.534 208.752 152.439 208.864 153.429 208.864C154.661 208.864 155.603 208.659 156.257 208.248C156.91 207.837 157.237 207.249 157.237 206.484C157.237 205.905 156.929 205.439 156.313 205.084C155.715 204.729 154.642 204.393 153.093 204.076C151.357 203.721 149.966 203.292 148.921 202.788C147.894 202.284 147.138 201.659 146.653 200.912C146.186 200.165 145.953 199.26 145.953 198.196C145.953 197.02 146.289 195.965 146.961 195.032C147.651 194.08 148.594 193.343 149.789 192.82C151.002 192.279 152.365 192.008 153.877 192.008C156.527 192.008 158.711 192.671 160.429 193.996C160.709 194.22 160.905 194.453 161.017 194.696C161.147 194.92 161.213 195.2 161.213 195.536C161.213 196.003 161.063 196.413 160.765 196.768C160.485 197.123 160.158 197.3 159.785 197.3C159.579 197.3 159.383 197.272 159.197 197.216C159.029 197.16 158.786 197.039 158.469 196.852C157.703 196.367 156.994 196.003 156.341 195.76C155.706 195.517 154.894 195.396 153.905 195.396C152.766 195.396 151.87 195.62 151.217 196.068C150.563 196.497 150.237 197.095 150.237 197.86C150.237 198.308 150.358 198.681 150.601 198.98C150.862 199.26 151.282 199.512 151.861 199.736C152.458 199.96 153.298 200.193 154.381 200.436C156.919 200.996 158.739 201.715 159.841 202.592C160.961 203.469 161.521 204.673 161.521 206.204C161.521 207.399 161.185 208.453 160.513 209.368C159.859 210.283 158.926 210.992 157.713 211.496C156.518 212 155.127 212.252 153.541 212.252ZM172.683 212.168C171.825 212.205 171.171 212.075 170.723 211.776C170.294 211.477 170.079 211.02 170.079 210.404C170.079 209.844 170.219 209.433 170.499 209.172C170.779 208.892 171.218 208.733 171.815 208.696L172.711 208.64C174.055 208.584 174.727 207.791 174.727 206.26V194.276C174.727 193.623 174.933 193.1 175.343 192.708C175.754 192.316 176.286 192.12 176.939 192.12C177.593 192.12 178.115 192.316 178.507 192.708C178.918 193.1 179.123 193.623 179.123 194.276V206.204C179.123 209.9 177.275 211.869 173.579 212.112L172.683 212.168ZM201.438 209.34C201.587 209.676 201.662 209.975 201.662 210.236C201.662 210.759 201.447 211.207 201.018 211.58C200.607 211.935 200.131 212.112 199.59 212.112C199.235 212.112 198.899 212.019 198.582 211.832C198.265 211.627 198.022 211.328 197.854 210.936L196.37 207.632H186.878L185.394 210.936C185.226 211.328 184.983 211.627 184.666 211.832C184.367 212.019 184.031 212.112 183.658 212.112C183.117 212.112 182.631 211.935 182.202 211.58C181.773 211.207 181.558 210.759 181.558 210.236C181.558 209.975 181.633 209.676 181.782 209.34L189.342 193.464C189.547 193.016 189.855 192.68 190.266 192.456C190.677 192.213 191.115 192.092 191.582 192.092C192.067 192.092 192.515 192.213 192.926 192.456C193.337 192.699 193.654 193.035 193.878 193.464L201.438 209.34ZM188.362 204.328H194.886L191.638 197.048L188.362 204.328ZM208.302 212.14C207.648 212.14 207.116 211.944 206.706 211.552C206.314 211.16 206.118 210.637 206.118 209.984V195.816H201.582C200.2 195.816 199.51 195.219 199.51 194.024C199.51 192.848 200.2 192.26 201.582 192.26H215.022C216.403 192.26 217.094 192.848 217.094 194.024C217.094 195.219 216.403 195.816 215.022 195.816H210.486V209.984C210.486 210.637 210.29 211.16 209.898 211.552C209.506 211.944 208.974 212.14 208.302 212.14ZM221.156 212.168C220.484 212.168 219.952 211.972 219.56 211.58C219.168 211.188 218.972 210.656 218.972 209.984V194.276C218.972 193.623 219.168 193.1 219.56 192.708C219.952 192.316 220.484 192.12 221.156 192.12C221.828 192.12 222.36 192.316 222.752 192.708C223.144 193.1 223.34 193.623 223.34 194.276V209.984C223.34 210.656 223.144 211.188 222.752 211.58C222.36 211.972 221.828 212.168 221.156 212.168ZM244.785 192.12C245.401 192.12 245.896 192.325 246.269 192.736C246.661 193.128 246.857 193.641 246.857 194.276V210.18C246.857 210.796 246.68 211.281 246.325 211.636C245.97 211.991 245.504 212.168 244.925 212.168C244.365 212.168 243.908 211.991 243.553 211.636C243.198 211.281 243.021 210.796 243.021 210.18V200.296L239.045 207.772C238.784 208.257 238.494 208.612 238.177 208.836C237.878 209.06 237.514 209.172 237.085 209.172C236.674 209.172 236.31 209.06 235.993 208.836C235.676 208.612 235.386 208.257 235.125 207.772L231.149 200.436V210.18C231.149 210.777 230.972 211.263 230.617 211.636C230.262 211.991 229.796 212.168 229.217 212.168C228.657 212.168 228.2 211.991 227.845 211.636C227.49 211.281 227.313 210.796 227.313 210.18V194.276C227.313 193.641 227.5 193.128 227.873 192.736C228.265 192.325 228.769 192.12 229.385 192.12C230.281 192.12 230.962 192.596 231.429 193.548L237.113 204.328L242.769 193.548C243.273 192.596 243.945 192.12 244.785 192.12Z" fill="#6777EF"/>
</svg>
